<svg width="306" height="310" viewBox="0 0 306 310" fill="none" xmlns="http://www.w3.org/2000/svg">
<path d="M228 243.763C226.688 224.285 210.333 146.407 165.26 140.73C112.478 134.083 114.619 186.67 138 200.263C181 225.263 233.395 189.014 183.426 118.746C162.102 93.1602 112.362 78.1046 83.3291 88.5859" stroke="#4F4F4F" stroke-dasharray="7 7"/>
<g clip-path="url(#clip0_286_500)">
<path d="M82.3104 96.7075L71.8377 96.3566L81.2744 94.0524L82.3104 96.7075ZM69.2709 89.7786L76.7381 82.4274L77.7742 85.0825L69.2709 89.7786ZM86.1165 99.3979L82.8496 91.026L63.9764 95.6344L80.9829 86.2421L77.716 77.8701L56.8005 98.4345L86.1165 99.3979Z" fill="#4F4F4F"/>
</g>
<defs>
<clipPath id="clip0_286_500">
<rect width="30.8116" height="30.8116" fill="white" transform="translate(89.9084 102.053) rotate(158.684)"/>
</clipPath>
</defs>
</svg>
