<svg width="173" height="173" viewBox="0 0 173 173" fill="none" xmlns="http://www.w3.org/2000/svg">
<g clip-path="url(#clip0_286_505)">
<path d="M129.899 112.117C129.547 111.788 129.646 111.563 130.138 111.616L147.637 113.514C148.121 113.567 148.255 113.912 147.948 114.27L136.655 127.462C136.343 127.828 136.094 127.731 136.099 127.25L136.188 119.507L143.875 115.331L135.326 117.187L129.899 112.117Z" fill="#4F4F4F"/>
</g>
<path d="M56.5447 25.9149C54.3491 34.9557 47.3552 77.5659 72.9999 89.9997C105.5 105.757 122 73.4997 112 55.9997C92.5934 22.0382 24.0135 47.5826 38.9999 91.9997C56.5448 144 118.5 127 132.5 120" stroke="#4F4F4F" stroke-dasharray="4 4"/>
<defs>
<clipPath id="clip0_286_505">
<rect width="20.9952" height="20.9952" fill="white" transform="translate(131.746 104) rotate(24.6185)"/>
</clipPath>
</defs>
</svg>
