<svg width="100" height="102" viewBox="0 0 100 102" fill="none" xmlns="http://www.w3.org/2000/svg">
<circle cx="1.5" cy="1.5" r="1.5" fill="#FF4900"/>
<circle cx="18.5" cy="1.5" r="1.5" fill="#FF4900"/>
<circle cx="35.5" cy="1.5" r="1.5" fill="#FF4900"/>
<circle cx="52.5" cy="1.5" r="1.5" fill="#FF4900"/>
<circle cx="69.5" cy="1.5" r="1.5" fill="#FF4900"/>
<circle cx="86.5" cy="1.5" r="1.5" fill="#FF4900"/>
<circle cx="1.5" cy="18.5" r="1.5" fill="#FF4900"/>
<circle cx="18.5" cy="18.5" r="1.5" fill="#FF4900"/>
<circle cx="35.5" cy="18.5" r="1.5" fill="#FF4900"/>
<circle cx="52.5" cy="18.5" r="1.5" fill="#FF4900"/>
<circle cx="69.5" cy="18.5" r="1.5" fill="#FF4900"/>
<circle cx="86.5" cy="18.5" r="1.5" fill="#FF4900"/>
<circle cx="1.5" cy="35.5" r="1.5" fill="#FF4900"/>
<circle cx="18.5" cy="35.5" r="1.5" fill="#FF4900"/>
<circle cx="35.5" cy="35.5" r="1.5" fill="#FF4900"/>
<circle cx="52.5" cy="35.5" r="1.5" fill="#FF4900"/>
<circle cx="69.5" cy="35.5" r="1.5" fill="#FF4900"/>
<circle cx="86.5" cy="35.5" r="1.5" fill="#FF4900"/>
<circle cx="1.5" cy="52.5" r="1.5" fill="#FF4900"/>
<circle cx="18.5" cy="52.5" r="1.5" fill="#FF4900"/>
<circle cx="35.5" cy="52.5" r="1.5" fill="#FF4900"/>
<circle cx="52.5" cy="52.5" r="1.5" fill="#FF4900"/>
<circle cx="69.5" cy="52.5" r="1.5" fill="#FF4900"/>
<circle cx="86.5" cy="52.5" r="1.5" fill="#FF4900"/>
<circle cx="1.5" cy="69.5" r="1.5" fill="#FF4900"/>
<circle cx="18.5" cy="69.5" r="1.5" fill="#FF4900"/>
<circle cx="35.5" cy="69.5" r="1.5" fill="#FF4900"/>
<circle cx="52.5" cy="69.5" r="1.5" fill="#FF4900"/>
<circle cx="69.5" cy="69.5" r="1.5" fill="#FF4900"/>
<circle cx="86.5" cy="69.5" r="1.5" fill="#FF4900"/>
<circle cx="1.5" cy="86.5" r="1.5" fill="#FF4900"/>
<circle cx="18.5" cy="86.5" r="1.5" fill="#FF4900"/>
<circle cx="35.5" cy="86.5" r="1.5" fill="#FF4900"/>
<circle cx="52.5" cy="86.5" r="1.5" fill="#FF4900"/>
<circle cx="69.5" cy="86.5" r="1.5" fill="#FF4900"/>
<circle cx="86.5" cy="86.5" r="1.5" fill="#FF4900"/>
</svg>
