<svg width="100" height="100" viewBox="0 0 100 100" fill="none" xmlns="http://www.w3.org/2000/svg">
<g clip-path="url(#clip0_286_147)">
<circle cx="1.5" cy="1.5" r="1.5" fill="#D2D6DB"/>
<circle cx="24.5" cy="1.5" r="1.5" fill="#D2D6DB"/>
<circle cx="47.5" cy="1.5" r="1.5" fill="#D2D6DB"/>
<circle cx="70.5" cy="1.5" r="1.5" fill="#D2D6DB"/>
<circle cx="93.5" cy="1.5" r="1.5" fill="#D2D6DB"/>
<circle cx="1.5" cy="24.5" r="1.5" fill="#D2D6DB"/>
<circle cx="24.5" cy="24.5" r="1.5" fill="#D2D6DB"/>
<circle cx="47.5" cy="24.5" r="1.5" fill="#D2D6DB"/>
<circle cx="70.5" cy="24.5" r="1.5" fill="#D2D6DB"/>
<circle cx="93.5" cy="24.5" r="1.5" fill="#D2D6DB"/>
<circle cx="1.5" cy="47.5" r="1.5" fill="#D2D6DB"/>
<circle cx="24.5" cy="47.5" r="1.5" fill="#D2D6DB"/>
<circle cx="47.5" cy="47.5" r="1.5" fill="#D2D6DB"/>
<circle cx="70.5" cy="47.5" r="1.5" fill="#D2D6DB"/>
<circle cx="93.5" cy="47.5" r="1.5" fill="#D2D6DB"/>
<circle cx="1.5" cy="70.5" r="1.5" fill="#D2D6DB"/>
<circle cx="24.5" cy="70.5" r="1.5" fill="#D2D6DB"/>
<circle cx="47.5" cy="70.5" r="1.5" fill="#D2D6DB"/>
<circle cx="70.5" cy="70.5" r="1.5" fill="#D2D6DB"/>
<circle cx="93.5" cy="70.5" r="1.5" fill="#D2D6DB"/>
<circle cx="1.5" cy="93.5" r="1.5" fill="#D2D6DB"/>
<circle cx="24.5" cy="93.5" r="1.5" fill="#D2D6DB"/>
<circle cx="47.5" cy="93.5" r="1.5" fill="#D2D6DB"/>
<circle cx="70.5" cy="93.5" r="1.5" fill="#D2D6DB"/>
<circle cx="93.5" cy="93.5" r="1.5" fill="#D2D6DB"/>
</g>
<defs>
<clipPath id="clip0_286_147">
<rect width="100" height="100" fill="white"/>
</clipPath>
</defs>
</svg>
