<svg width="162" height="51" viewBox="0 0 162 51" fill="none" xmlns="http://www.w3.org/2000/svg">
<path d="M85.161 35.048H80.688V47H79.761V35.048H75.261V34.265H85.161V35.048ZM92.3894 41.618C92.3894 41.138 92.3204 40.709 92.1824 40.331C92.0504 39.947 91.8614 39.623 91.6154 39.359C91.3694 39.095 91.0754 38.894 90.7334 38.756C90.3974 38.612 90.0254 38.54 89.6174 38.54C89.1554 38.54 88.7414 38.612 88.3754 38.756C88.0094 38.9 87.6914 39.107 87.4214 39.377C87.1574 39.647 86.9444 39.971 86.7824 40.349C86.6204 40.727 86.5124 41.15 86.4584 41.618H92.3894ZM86.4134 42.167V42.338C86.4134 43.01 86.4914 43.601 86.6474 44.111C86.8034 44.621 87.0254 45.05 87.3134 45.398C87.6014 45.74 87.9494 45.998 88.3574 46.172C88.7654 46.346 89.2214 46.433 89.7254 46.433C90.1754 46.433 90.5654 46.385 90.8954 46.289C91.2254 46.187 91.5014 46.076 91.7234 45.956C91.9514 45.83 92.1314 45.719 92.2634 45.623C92.3954 45.521 92.4914 45.47 92.5514 45.47C92.6294 45.47 92.6894 45.5 92.7314 45.56L92.9654 45.848C92.8214 46.028 92.6294 46.196 92.3894 46.352C92.1554 46.508 91.8914 46.643 91.5974 46.757C91.3094 46.865 90.9974 46.952 90.6614 47.018C90.3314 47.084 89.9984 47.117 89.6624 47.117C89.0504 47.117 88.4924 47.012 87.9884 46.802C87.4844 46.586 87.0524 46.274 86.6924 45.866C86.3324 45.458 86.0534 44.96 85.8554 44.372C85.6634 43.778 85.5674 43.1 85.5674 42.338C85.5674 41.696 85.6574 41.105 85.8374 40.565C86.0234 40.019 86.2874 39.551 86.6294 39.161C86.9774 38.765 87.4004 38.456 87.8984 38.234C88.4024 38.012 88.9724 37.901 89.6084 37.901C90.1124 37.901 90.5804 37.988 91.0124 38.162C91.4444 38.336 91.8194 38.591 92.1374 38.927C92.4554 39.257 92.7044 39.665 92.8844 40.151C93.0704 40.637 93.1634 41.195 93.1634 41.825C93.1634 41.957 93.1454 42.047 93.1094 42.095C93.0734 42.143 93.0134 42.167 92.9294 42.167H86.4134ZM102.955 39.242C102.925 39.272 102.895 39.299 102.865 39.323C102.841 39.341 102.805 39.35 102.757 39.35C102.697 39.35 102.616 39.311 102.514 39.233C102.412 39.149 102.274 39.059 102.1 38.963C101.926 38.867 101.707 38.78 101.443 38.702C101.185 38.618 100.87 38.576 100.498 38.576C99.9821 38.576 99.5231 38.669 99.1211 38.855C98.7251 39.035 98.3891 39.296 98.1131 39.638C97.8371 39.98 97.6271 40.394 97.4831 40.88C97.3451 41.366 97.2761 41.912 97.2761 42.518C97.2761 43.148 97.3481 43.706 97.4921 44.192C97.6421 44.678 97.8521 45.089 98.1221 45.425C98.3921 45.755 98.7191 46.007 99.1031 46.181C99.4871 46.355 99.9131 46.442 100.381 46.442C100.813 46.442 101.173 46.391 101.461 46.289C101.755 46.187 101.995 46.076 102.181 45.956C102.373 45.836 102.523 45.725 102.631 45.623C102.739 45.521 102.829 45.47 102.901 45.47C102.973 45.47 103.033 45.5 103.081 45.56L103.306 45.848C103.168 46.028 102.994 46.196 102.784 46.352C102.574 46.508 102.337 46.643 102.073 46.757C101.809 46.871 101.521 46.958 101.209 47.018C100.903 47.084 100.582 47.117 100.246 47.117C99.6761 47.117 99.1541 47.015 98.6801 46.811C98.2121 46.601 97.8071 46.301 97.4651 45.911C97.1291 45.515 96.8651 45.032 96.6731 44.462C96.4871 43.892 96.3941 43.244 96.3941 42.518C96.3941 41.834 96.4841 41.21 96.6641 40.646C96.8441 40.082 97.1081 39.596 97.4561 39.188C97.8041 38.78 98.2271 38.465 98.7251 38.243C99.2291 38.015 99.8051 37.901 100.453 37.901C101.035 37.901 101.551 37.994 102.001 38.18C102.451 38.366 102.844 38.618 103.18 38.936L102.955 39.242ZM107.728 39.557C108.142 39.053 108.613 38.651 109.141 38.351C109.675 38.051 110.272 37.901 110.932 37.901C111.424 37.901 111.856 37.979 112.228 38.135C112.606 38.291 112.918 38.516 113.164 38.81C113.41 39.104 113.596 39.458 113.722 39.872C113.848 40.286 113.911 40.754 113.911 41.276V47H113.047V41.276C113.047 40.436 112.855 39.779 112.471 39.305C112.087 38.825 111.502 38.585 110.716 38.585C110.134 38.585 109.588 38.735 109.078 39.035C108.574 39.329 108.124 39.74 107.728 40.268V47H106.864V33.905H107.728V39.557Z" fill="white"/>
<path d="M79.79 11.33H80.33C80.83 11.33 81.19 11.1733 81.41 10.86L84.69 6.1C84.8833 5.84667 85.09 5.67333 85.31 5.58C85.5367 5.48 85.8167 5.43 86.15 5.43H89.09L84.77 11.32C84.4633 11.7267 84.1333 12.02 83.78 12.2C84.0333 12.2933 84.2633 12.4233 84.47 12.59C84.6767 12.7567 84.87 12.9733 85.05 13.24L89.45 20H86.43C86.2367 20 86.07 19.9867 85.93 19.96C85.7967 19.9333 85.68 19.8933 85.58 19.84C85.48 19.7867 85.3933 19.7233 85.32 19.65C85.2467 19.57 85.1767 19.48 85.11 19.38L81.81 14.31C81.69 14.1233 81.5367 13.9933 81.35 13.92C81.17 13.84 80.9233 13.8 80.61 13.8H79.79V20H76.41V5.43H79.79V11.33ZM98.1611 14.72C98.1611 15.5333 98.0578 16.2733 97.8511 16.94C97.6511 17.6067 97.3444 18.18 96.9311 18.66C96.5244 19.1333 96.0111 19.5033 95.3911 19.77C94.7711 20.03 94.0411 20.16 93.2011 20.16C92.8211 20.16 92.4444 20.14 92.0711 20.1C91.7044 20.06 91.3211 19.9933 90.9211 19.9L91.1011 17.93C91.1211 17.7567 91.1911 17.6167 91.3111 17.51C91.4311 17.4033 91.6011 17.35 91.8211 17.35C91.9344 17.35 92.0744 17.37 92.2411 17.41C92.4078 17.4433 92.6078 17.46 92.8411 17.46C93.1678 17.46 93.4511 17.4167 93.6911 17.33C93.9378 17.2367 94.1411 17.0867 94.3011 16.88C94.4611 16.6667 94.5811 16.39 94.6611 16.05C94.7411 15.71 94.7811 15.29 94.7811 14.79V5.43H98.1611V14.72ZM104.172 4.47C104.532 5.04333 104.775 5.63333 104.902 6.24C105.029 6.84667 105.035 7.44667 104.922 8.04C104.815 8.62667 104.592 9.19 104.252 9.73C103.912 10.27 103.459 10.76 102.892 11.2L101.912 10.62C101.825 10.5733 101.765 10.5167 101.732 10.45C101.699 10.3767 101.682 10.3067 101.682 10.24C101.689 10.1667 101.705 10.1 101.732 10.04C101.765 9.97333 101.805 9.91667 101.852 9.87C101.925 9.79 102.005 9.68 102.092 9.54C102.179 9.4 102.259 9.23667 102.332 9.05C102.405 8.86333 102.462 8.66 102.502 8.44C102.549 8.21333 102.565 7.97667 102.552 7.73C102.539 7.47667 102.492 7.21667 102.412 6.95C102.332 6.67667 102.202 6.4 102.022 6.12C101.875 5.88667 101.835 5.68667 101.902 5.52C101.975 5.35333 102.112 5.23333 102.312 5.16L104.172 4.47ZM114.315 11.9C114.235 12.0267 114.148 12.1167 114.055 12.17C113.968 12.2233 113.855 12.25 113.715 12.25C113.568 12.25 113.422 12.22 113.275 12.16C113.128 12.0933 112.968 12.0233 112.795 11.95C112.628 11.8767 112.438 11.81 112.225 11.75C112.012 11.6833 111.768 11.65 111.495 11.65C111.102 11.65 110.798 11.7267 110.585 11.88C110.378 12.0267 110.275 12.2333 110.275 12.5C110.275 12.6933 110.342 12.8533 110.475 12.98C110.615 13.1067 110.798 13.22 111.025 13.32C111.252 13.4133 111.508 13.5033 111.795 13.59C112.082 13.6767 112.375 13.7733 112.675 13.88C112.975 13.9867 113.268 14.1133 113.555 14.26C113.842 14.4 114.098 14.5767 114.325 14.79C114.552 14.9967 114.732 15.25 114.865 15.55C115.005 15.85 115.075 16.21 115.075 16.63C115.075 17.1433 114.982 17.6167 114.795 18.05C114.608 18.4833 114.328 18.8567 113.955 19.17C113.588 19.4833 113.132 19.7267 112.585 19.9C112.045 20.0733 111.422 20.16 110.715 20.16C110.362 20.16 110.008 20.1267 109.655 20.06C109.302 19.9933 108.958 19.9033 108.625 19.79C108.298 19.6767 107.995 19.5433 107.715 19.39C107.435 19.23 107.195 19.06 106.995 18.88L107.715 17.74C107.795 17.6067 107.895 17.5033 108.015 17.43C108.142 17.35 108.302 17.31 108.495 17.31C108.675 17.31 108.835 17.35 108.975 17.43C109.122 17.51 109.278 17.5967 109.445 17.69C109.612 17.7833 109.805 17.87 110.025 17.95C110.252 18.03 110.535 18.07 110.875 18.07C111.115 18.07 111.318 18.0467 111.485 18C111.652 17.9467 111.785 17.8767 111.885 17.79C111.985 17.7033 112.058 17.6067 112.105 17.5C112.152 17.3933 112.175 17.2833 112.175 17.17C112.175 16.9633 112.105 16.7933 111.965 16.66C111.825 16.5267 111.642 16.4133 111.415 16.32C111.188 16.22 110.928 16.13 110.635 16.05C110.348 15.9633 110.055 15.8667 109.755 15.76C109.455 15.6533 109.158 15.5267 108.865 15.38C108.578 15.2267 108.322 15.0367 108.095 14.81C107.868 14.5767 107.685 14.2933 107.545 13.96C107.405 13.6267 107.335 13.2233 107.335 12.75C107.335 12.31 107.418 11.8933 107.585 11.5C107.758 11.1 108.015 10.75 108.355 10.45C108.695 10.15 109.122 9.91333 109.635 9.74C110.148 9.56 110.748 9.47 111.435 9.47C111.808 9.47 112.168 9.50333 112.515 9.57C112.868 9.63667 113.198 9.73 113.505 9.85C113.812 9.97 114.092 10.1133 114.345 10.28C114.598 10.44 114.822 10.6167 115.015 10.81L114.315 11.9Z" fill="#FF4900"/>
<path d="M132.709 34.265V47H131.782V40.898H123.808V47H122.881V34.265H123.808V40.205H131.782V34.265H132.709ZM143.505 41.618C143.505 41.138 143.436 40.709 143.298 40.331C143.166 39.947 142.977 39.623 142.731 39.359C142.485 39.095 142.191 38.894 141.849 38.756C141.513 38.612 141.141 38.54 140.733 38.54C140.271 38.54 139.857 38.612 139.491 38.756C139.125 38.9 138.807 39.107 138.537 39.377C138.273 39.647 138.06 39.971 137.898 40.349C137.736 40.727 137.628 41.15 137.574 41.618H143.505ZM137.529 42.167V42.338C137.529 43.01 137.607 43.601 137.763 44.111C137.919 44.621 138.141 45.05 138.429 45.398C138.717 45.74 139.065 45.998 139.473 46.172C139.881 46.346 140.337 46.433 140.841 46.433C141.291 46.433 141.681 46.385 142.011 46.289C142.341 46.187 142.617 46.076 142.839 45.956C143.067 45.83 143.247 45.719 143.379 45.623C143.511 45.521 143.607 45.47 143.667 45.47C143.745 45.47 143.805 45.5 143.847 45.56L144.081 45.848C143.937 46.028 143.745 46.196 143.505 46.352C143.271 46.508 143.007 46.643 142.713 46.757C142.425 46.865 142.113 46.952 141.777 47.018C141.447 47.084 141.114 47.117 140.778 47.117C140.166 47.117 139.608 47.012 139.104 46.802C138.6 46.586 138.168 46.274 137.808 45.866C137.448 45.458 137.169 44.96 136.971 44.372C136.779 43.778 136.683 43.1 136.683 42.338C136.683 41.696 136.773 41.105 136.953 40.565C137.139 40.019 137.403 39.551 137.745 39.161C138.093 38.765 138.516 38.456 139.014 38.234C139.518 38.012 140.088 37.901 140.724 37.901C141.228 37.901 141.696 37.988 142.128 38.162C142.56 38.336 142.935 38.591 143.253 38.927C143.571 39.257 143.82 39.665 144 40.151C144.186 40.637 144.279 41.195 144.279 41.825C144.279 41.957 144.261 42.047 144.225 42.095C144.189 42.143 144.129 42.167 144.045 42.167H137.529ZM148.994 33.905V47H148.13V33.905H148.994ZM154.326 45.047C154.5 45.305 154.68 45.524 154.866 45.704C155.058 45.878 155.259 46.022 155.469 46.136C155.679 46.244 155.901 46.322 156.135 46.37C156.375 46.418 156.627 46.442 156.891 46.442C157.419 46.442 157.881 46.346 158.277 46.154C158.673 45.962 159.003 45.692 159.267 45.344C159.537 44.99 159.738 44.57 159.87 44.084C160.008 43.592 160.077 43.052 160.077 42.464C160.077 41.132 159.831 40.154 159.339 39.53C158.847 38.9 158.142 38.585 157.224 38.585C156.63 38.585 156.093 38.738 155.613 39.044C155.133 39.35 154.704 39.776 154.326 40.322V45.047ZM154.29 39.656C154.686 39.116 155.148 38.687 155.676 38.369C156.21 38.051 156.807 37.892 157.467 37.892C158.565 37.892 159.42 38.273 160.032 39.035C160.65 39.797 160.959 40.94 160.959 42.464C160.959 43.118 160.872 43.73 160.698 44.3C160.53 44.864 160.278 45.356 159.942 45.776C159.612 46.19 159.204 46.517 158.718 46.757C158.238 46.997 157.683 47.117 157.053 47.117C156.447 47.117 155.922 47.006 155.478 46.784C155.034 46.562 154.65 46.235 154.326 45.803V50.168H153.462V38.045H153.939C154.089 38.045 154.176 38.12 154.2 38.27L154.29 39.656Z" fill="white"/>
<path d="M8.09174 0C8.09175 3.70292 9.00031 9.08618 12.3226 13.4484C15.0787 17.0672 19.8325 20.4294 28.3211 21.24V7.52766H36.4128L36.4128 42.866C40.0129 42.7534 43.9287 42.2237 47.2182 40.5845C49.3939 39.5003 51.2448 37.9521 52.5821 35.6987C53.9289 33.4295 54.9083 30.1852 54.9083 25.4782H63C63 31.3238 61.7758 36.0701 59.5373 39.8419C57.2894 43.6295 54.1732 46.1728 50.8219 47.8428C44.3389 51.0735 36.8191 51.0999 32.3022 50.9565H28.3211V29.7164C19.8325 30.5271 15.0787 33.8892 12.3226 37.5081C9.00032 41.8703 8.09175 47.2536 8.09175 50.9565L4.40965e-06 50.9565C4.2957e-06 46.2113 1.1182 38.8555 5.88959 32.5906C8.00183 29.8172 10.7445 27.3696 14.2282 25.4782C10.7445 23.5869 8.00184 21.1393 5.8896 18.3659C1.1182 12.101 2.20482e-06 4.74513 0 4.79865e-06L8.09174 0Z" fill="#FF4900"/>
</svg>
