<svg width="48" height="39" viewBox="0 0 48 39" fill="none" xmlns="http://www.w3.org/2000/svg">
<path d="M6.16514 0C6.16514 2.83164 6.85738 6.94825 9.38864 10.284C11.4886 13.0514 15.1105 15.6224 21.578 16.2424V5.75645H27.7431L27.7431 32.7799C30.4861 32.6938 33.4695 32.2887 35.9758 31.0352C37.6334 30.2061 39.0436 29.0222 40.0626 27.299C41.0887 25.5637 41.8349 23.0828 41.8349 19.4834H48C48 23.9535 47.0673 27.5831 45.3617 30.4673C43.649 33.3637 41.2748 35.3086 38.7215 36.5857C33.7821 39.0562 28.0526 39.0764 24.6112 38.9667H21.578V22.7243C15.1105 23.3443 11.4886 25.9153 9.38863 28.6827C6.85738 32.0185 6.16514 36.1351 6.16514 38.9667L3.35973e-06 38.9667C3.27292e-06 35.3381 0.851965 29.713 4.48731 24.9222C6.09664 22.8014 8.18625 20.9297 10.8405 19.4834C8.18626 18.037 6.09664 16.1654 4.48731 14.0445C0.851965 9.2537 1.67987e-06 3.62863 0 3.66955e-06L6.16514 0Z" fill="#FF4900"/>
</svg>
